<svg width="60" height="60" viewBox="0 0 60 60" fill="none" xmlns="http://www.w3.org/2000/svg">
<path d="M14.9823 43.0118H20.5409V29.5122L12.6 23.5565V40.6296C12.6 41.9478 13.668 43.0118 14.9823 43.0118Z" fill="#4285F4"/>
<path d="M39.5993 43.0118H45.158C46.4762 43.0118 47.5403 41.9438 47.5403 40.6296V23.5565L39.5993 29.5122" fill="#34A853"/>
<path d="M39.5993 19.1891V29.5122L47.5403 23.5565V20.3802C47.5403 17.4341 44.1773 15.7546 41.8228 17.5215" fill="#FBBC04"/>
<path d="M20.5409 29.5122L20.5409 19.1889L30.0701 26.3358L39.5993 19.1891V29.5122L30.0701 36.6591" fill="#EA4335"/>
<path d="M12.6 20.3802V23.5565L20.5409 29.5122L20.5409 19.1889L18.3175 17.5215C15.959 15.7546 12.6 17.4341 12.6 20.3802Z" fill="#C5221F"/>
</svg>
