<svg width="60" height="60" viewBox="0 0 60 60" fill="none" xmlns="http://www.w3.org/2000/svg">
<path d="M24.729 30.1824C24.729 27.1666 27.1746 24.7212 30.1922 24.7212C33.2098 24.7212 35.6567 27.1666 35.6567 30.1824C35.6567 33.1982 33.2098 35.6437 30.1922 35.6437C27.1746 35.6437 24.729 33.1982 24.729 30.1824ZM21.775 30.1824C21.775 34.8285 25.5434 38.5946 30.1922 38.5946C34.841 38.5946 38.6094 34.8285 38.6094 30.1824C38.6094 25.5364 34.841 21.7703 30.1922 21.7703C25.5434 21.7703 21.775 25.5364 21.775 30.1824ZM36.9756 21.4367C36.9754 21.8255 37.0906 22.2057 37.3066 22.529C37.5226 22.8524 37.8298 23.1045 38.1891 23.2535C38.5485 23.4024 38.944 23.4415 39.3256 23.3658C39.7072 23.2901 40.0578 23.103 40.333 22.8282C40.6082 22.5533 40.7957 22.2031 40.8717 21.8218C40.9478 21.4405 40.909 21.0452 40.7602 20.6859C40.6115 20.3266 40.3595 20.0195 40.0361 19.8034C39.7127 19.5872 39.3325 19.4718 38.9434 19.4716H38.9426C38.4211 19.4719 37.9211 19.679 37.5522 20.0474C37.1834 20.4159 36.976 20.9156 36.9756 21.4367ZM23.5697 43.5173C21.9716 43.4445 21.1029 43.1785 20.5256 42.9537C19.7603 42.656 19.2143 42.3013 18.6401 41.7283C18.066 41.1553 17.7106 40.6101 17.414 39.8453C17.189 39.2686 16.9228 38.4002 16.8501 36.803C16.7706 35.0762 16.7548 34.5574 16.7548 30.1826C16.7548 25.8077 16.772 25.2904 16.8501 23.5621C16.9229 21.9649 17.1911 21.0982 17.414 20.5198C17.712 19.755 18.0668 19.2092 18.6401 18.6355C19.2135 18.0617 19.759 17.7065 20.5256 17.4101C21.1027 17.1852 21.9716 16.9191 23.5697 16.8465C25.2976 16.7671 25.8167 16.7512 30.1922 16.7512C34.5677 16.7512 35.0873 16.7684 36.8166 16.8465C38.4148 16.9193 39.282 17.1873 39.8607 17.4101C40.626 17.7065 41.1721 18.0625 41.7462 18.6355C42.3203 19.2085 42.6744 19.755 42.9723 20.5198C43.1974 21.0965 43.4636 21.9649 43.5362 23.5621C43.6157 25.2904 43.6316 25.8077 43.6316 30.1826C43.6316 34.5574 43.6157 35.0747 43.5362 36.803C43.4635 38.4002 43.1959 39.2684 42.9723 39.8453C42.6744 40.6101 42.3195 41.1559 41.7462 41.7283C41.1729 42.3008 40.626 42.656 39.8607 42.9537C39.2837 43.1786 38.4148 43.4447 36.8166 43.5173C35.0887 43.5967 34.5697 43.6126 30.1922 43.6126C25.8147 43.6126 25.2971 43.5967 23.5697 43.5173ZM23.434 13.8993C21.689 13.9787 20.4965 14.2552 19.4552 14.6602C18.3767 15.0784 17.4637 15.6395 16.5514 16.5498C15.6391 17.4601 15.0791 18.374 14.6606 19.4518C14.2554 20.4932 13.9787 21.6843 13.8993 23.4283C13.8185 25.1751 13.8 25.7335 13.8 30.1824C13.8 34.6314 13.8185 35.1898 13.8993 36.9366C13.9787 38.6807 14.2554 39.8716 14.6606 40.913C15.0791 41.9902 15.6392 42.9051 16.5514 43.8151C17.4636 44.725 18.3767 45.2853 19.4552 45.7047C20.4985 46.1096 21.689 46.3862 23.434 46.4656C25.1827 46.545 25.7406 46.5648 30.1922 46.5648C34.6438 46.5648 35.2026 46.5463 36.9504 46.4656C38.6956 46.3862 39.8872 46.1096 40.9292 45.7047C42.007 45.2853 42.9207 44.7254 43.833 43.8151C44.7453 42.9047 45.3041 41.9902 45.7237 40.913C46.129 39.8716 46.407 38.6806 46.4851 36.9366C46.5646 35.1885 46.5831 34.6314 46.5831 30.1824C46.5831 25.7335 46.5646 25.1751 46.4851 23.4283C46.4057 21.6842 46.129 20.4926 45.7237 19.4518C45.3041 18.3747 44.7439 17.4616 43.833 16.5498C42.9221 15.638 42.007 15.0784 40.9305 14.6602C39.8872 14.2552 38.6954 13.9774 36.9517 13.8993C35.2039 13.8198 34.6451 13.8 30.1935 13.8C25.7419 13.8 25.1827 13.8185 23.434 13.8993Z" fill="url(#paint0_linear_152_347)"/>
<defs>
<linearGradient id="paint0_linear_152_347" x1="45.953" y1="46.5648" x2="13.1883" y2="13.7817" gradientUnits="userSpaceOnUse">
<stop stop-color="#FBE18A"/>
<stop offset="0.21" stop-color="#FCBB45"/>
<stop offset="0.38" stop-color="#F75274"/>
<stop offset="0.52" stop-color="#D53692"/>
<stop offset="0.74" stop-color="#8F39CE"/>
<stop offset="1" stop-color="#5B4FE9"/>
</linearGradient>
</defs>
</svg>
