<svg width="60" height="60" viewBox="0 0 60 60" fill="none" xmlns="http://www.w3.org/2000/svg">
<path fill-rule="evenodd" clip-rule="evenodd" d="M16.223 13.8C14.8852 13.8 13.8 14.8522 13.8 16.1485V44.2368C13.8 45.5332 14.8853 46.5845 16.223 46.5845H44.1614C45.4997 46.5845 46.5844 45.5331 46.5844 44.2364V16.1485C46.5844 14.8522 45.4997 13.8 44.1614 13.8H16.223ZM23.7626 26.4767V41.2364H18.8567V26.4767H23.7626ZM24.086 21.9121C24.086 23.3285 23.0211 24.4619 21.3107 24.4619L21.2785 24.4618C19.632 24.4618 18.5675 23.3284 18.5675 21.912C18.5675 20.4635 19.6642 19.3617 21.3432 19.3617C23.0211 19.3617 24.0539 20.4635 24.086 21.9121ZM31.3836 41.2364H26.4781C26.4781 41.2364 26.5424 27.8619 26.4783 26.4772H31.3839V28.5664C32.0361 27.5609 33.2032 26.1307 35.8054 26.1307C39.033 26.1307 41.4529 28.2403 41.4529 32.7736V41.2364H36.5475V33.3412C36.5475 31.3569 35.8371 30.0035 34.0624 30.0035C32.7068 30.0035 31.8997 30.9162 31.5452 31.7979C31.4156 32.1126 31.3836 32.5543 31.3836 32.9948V41.2364Z" fill="white"/>
</svg>
