<svg width="60" height="60" viewBox="0 0 60 60" fill="none" xmlns="http://www.w3.org/2000/svg">
<path d="M28.5334 15.1003C23.6635 15.6568 18.8108 19.6901 18.6106 25.4516C18.4847 28.9693 19.4603 31.6084 22.7308 32.3495C24.15 29.7865 22.273 29.2212 21.9811 27.3672C20.7823 19.7692 30.542 14.5877 35.6494 19.8922C39.183 23.5653 36.8568 34.8655 31.1572 33.691C25.6979 32.5691 33.8296 23.574 29.4719 21.8078C25.9297 20.3726 24.047 26.1985 25.7265 29.0924C24.7422 34.0688 22.622 38.7582 23.4804 45C26.2644 42.9321 27.2029 38.972 27.9726 34.8421C29.3718 35.712 30.1186 36.6171 31.904 36.7577C38.4877 37.279 42.1645 30.0297 41.266 23.3427C40.4677 17.4143 34.688 14.3974 28.5334 15.1003Z" fill="white"/>
</svg>
