<svg width="60" height="60" viewBox="0 0 60 60" fill="none" xmlns="http://www.w3.org/2000/svg">
<path d="M25.0636 33.1454C24.9052 32.9874 24.7799 32.7996 24.6939 32.593C24.6083 32.386 24.5644 32.1645 24.5644 31.9409C24.5644 31.2517 24.9797 30.6307 25.616 30.3666C26.2528 30.1029 26.9855 30.249 27.4727 30.7363C27.96 31.2236 28.1061 31.9562 27.8424 32.593C27.5784 33.2293 26.9573 33.6446 26.2682 33.6446C26.0444 33.6447 25.8228 33.6007 25.616 33.5151C25.4095 33.4291 25.2216 33.3039 25.0636 33.1454Z" fill="white"/>
<path d="M34.5911 36.3596C34.5894 36.4814 34.5395 36.5977 34.4522 36.6829L34.4633 36.6262C34.1638 36.852 33.8457 37.0513 33.5122 37.2225C32.8437 37.5651 32.1213 37.7903 31.3765 37.8883C31.0046 37.9368 30.6294 37.9535 30.255 37.9381C29.8806 37.9535 29.5053 37.9368 29.1335 37.8883C28.7616 37.8393 28.3949 37.7588 28.0371 37.6472C27.6793 37.5356 27.3313 37.3938 26.9978 37.2225C26.6643 37.0513 26.3461 36.852 26.0467 36.6262C25.9743 36.5381 25.9372 36.426 25.9427 36.3119C25.9483 36.1977 25.9964 36.09 26.0769 36.009C26.1578 35.9285 26.2656 35.8804 26.3798 35.8749C26.4939 35.8693 26.6059 35.9064 26.6941 35.9788C26.948 36.1649 27.2172 36.3293 27.4987 36.4699C27.7803 36.6105 28.0729 36.7272 28.3744 36.8183C28.6755 36.9099 28.9839 36.9755 29.2962 37.0143C29.6084 37.0534 29.9236 37.0662 30.2379 37.0522C30.5527 37.0692 30.8683 37.0598 31.1818 37.0236C31.4949 36.9874 31.8046 36.9248 32.107 36.8366C32.4096 36.7482 32.7043 36.6343 32.9878 36.4963C33.2713 36.3584 33.5426 36.1966 33.7988 36.0129C33.8972 35.9392 34.0148 35.8919 34.137 35.8936C34.2588 35.8953 34.3751 35.9451 34.4603 36.0325C34.5455 36.1198 34.5928 36.2373 34.5911 36.3596Z" fill="white"/>
<path d="M34.813 33.6502C34.5996 33.7388 34.3704 33.7835 34.1396 33.7809L34.1566 33.7128C33.4674 33.7128 32.8464 33.2975 32.5823 32.6611C32.3187 32.0243 32.4648 31.2917 32.952 30.8045C33.4393 30.3172 34.1719 30.1711 34.8087 30.4347C35.4451 30.6988 35.8604 31.3198 35.8604 32.009C35.8697 32.2398 35.8319 32.4701 35.7492 32.6858C35.6666 32.9018 35.5413 33.0986 35.3803 33.2643C35.2193 33.43 35.0264 33.5611 34.813 33.6502Z" fill="white"/>
<path fill-rule="evenodd" clip-rule="evenodd" d="M47.2754 30.2376C47.2754 39.6473 39.6473 47.2753 30.2377 47.2753C20.828 47.2753 13.2 39.6473 13.2 30.2376C13.2 20.828 20.828 13.2 30.2377 13.2C39.6473 13.2 47.2754 20.828 47.2754 30.2376ZM41.5152 30.9288C41.5765 30.7035 41.6055 30.4705 41.6021 30.2371C41.5846 29.7574 41.4287 29.2931 41.1531 28.9001C40.8777 28.5071 40.4944 28.2022 40.0495 28.0222C39.6047 27.8421 39.1173 27.7946 38.646 27.8855C38.1748 27.976 37.7399 28.201 37.3938 28.5333C36.9124 28.2061 36.408 27.914 35.8847 27.6593C34.8368 27.1487 33.7206 26.7921 32.5708 26.6004C31.9967 26.5046 31.4161 26.45 30.8343 26.4377L31.9417 21.1219L35.5878 21.8886C35.6772 22.7209 36.3583 23.365 37.1944 23.408C38.0301 23.451 38.7738 22.8802 38.948 22.0616C39.1227 21.2429 38.6763 20.4187 37.8955 20.1171C37.1148 19.8156 36.2305 20.1257 35.8093 20.8493L31.635 20.0145C31.5669 19.9996 31.4962 19.9983 31.4276 20.0107C31.3586 20.0234 31.293 20.0494 31.2342 20.0873C31.1759 20.1252 31.1252 20.1746 31.086 20.2322C31.0464 20.2901 31.0187 20.3548 31.0046 20.4234L29.7439 26.3355C29.1548 26.3444 28.567 26.396 27.9856 26.4901C27.4042 26.5842 26.83 26.7201 26.2682 26.8973C25.7063 27.0745 25.1582 27.2926 24.6279 27.549C24.0977 27.8058 23.5868 28.1006 23.0992 28.4311C22.8365 28.184 22.5232 27.997 22.1811 27.883C21.8389 27.769 21.4761 27.7307 21.1177 27.7709C20.7593 27.8109 20.414 27.9284 20.1056 28.1152C19.7972 28.302 19.5331 28.5537 19.3317 28.8528C19.1301 29.1519 18.996 29.4913 18.9386 29.8474C18.8813 30.2036 18.902 30.5679 18.9995 30.9152C19.0971 31.2623 19.2689 31.5841 19.5032 31.8583C19.7374 32.1325 20.0284 32.3525 20.3561 32.5031C20.3514 32.5653 20.3476 32.6279 20.3454 32.6905C20.3403 32.8154 20.3403 32.9405 20.3454 33.0653C20.3476 33.128 20.3514 33.1906 20.3561 33.2528C20.3561 37.0692 24.8029 40.1701 30.2891 40.1701C35.7752 40.1701 40.222 37.0692 40.222 33.2528C40.2267 33.1906 40.2305 33.128 40.2327 33.0653C40.2378 32.9405 40.2378 32.8154 40.2327 32.6905C40.2305 32.6279 40.2267 32.5653 40.222 32.5031C40.4312 32.3992 40.6245 32.2663 40.7966 32.1083C40.9687 31.9502 41.1178 31.7688 41.2392 31.5694C41.361 31.3701 41.4538 31.1542 41.5152 30.9288Z" fill="white"/>
</svg>
