<svg width="60" height="60" viewBox="0 0 60 60" fill="none" xmlns="http://www.w3.org/2000/svg">
<path d="M44.1174 21.3768C43.2103 21.7672 42.2566 22.039 41.28 22.1856C41.7366 22.1074 42.4084 21.2855 42.6759 20.9529C43.0821 20.4511 43.3918 19.8783 43.589 19.2635C43.589 19.2179 43.6347 19.1526 43.589 19.12C43.566 19.1075 43.5402 19.1009 43.514 19.1009C43.4878 19.1009 43.462 19.1075 43.439 19.12C42.3786 19.6943 41.25 20.1326 40.0799 20.4245C40.0391 20.437 39.9957 20.4381 39.9543 20.4278C39.913 20.4174 39.8752 20.396 39.8451 20.3658C39.754 20.2574 39.6559 20.155 39.5516 20.0593C39.0743 19.6317 38.5329 19.2817 37.947 19.0222C37.1562 18.6977 36.302 18.5572 35.4489 18.6113C34.6211 18.6635 33.8129 18.8856 33.0746 19.2635C32.3476 19.662 31.7087 20.2033 31.1961 20.855C30.657 21.5258 30.2678 22.3042 30.0547 23.1379C29.8789 23.931 29.859 24.7506 29.996 25.5513C29.996 25.6882 29.996 25.7078 29.8786 25.6882C25.228 25.0034 21.4123 23.3532 18.2945 19.8114C18.1575 19.6549 18.0858 19.6549 17.9749 19.8114C16.6182 21.8725 17.277 25.1338 18.9729 26.7449C19.2011 26.9601 19.436 27.1689 19.6838 27.3645C18.9063 27.3093 18.1477 27.0986 17.4531 26.7449C17.3226 26.6601 17.2509 26.7058 17.2444 26.8623C17.2259 27.0793 17.2259 27.2975 17.2444 27.5146C17.3805 28.5547 17.7904 29.5399 18.4321 30.3696C19.0739 31.1994 19.9245 31.8438 20.897 32.2369C21.1341 32.3384 21.3811 32.415 21.6341 32.4652C20.9142 32.6069 20.176 32.6289 19.449 32.5304C19.2925 32.4978 19.2338 32.5826 19.2925 32.7326C20.2513 35.3416 22.332 36.1374 23.8583 36.5809C24.067 36.6135 24.2757 36.6136 24.5105 36.6657C24.5105 36.6657 24.5105 36.6657 24.4714 36.7049C24.0213 37.5267 22.2015 38.0811 21.3666 38.3681C19.8428 38.9155 18.218 39.1247 16.6052 38.9812C16.3508 38.9421 16.2921 38.9486 16.2269 38.9812C16.1616 39.0139 16.2269 39.0856 16.2986 39.1508C16.6247 39.3661 16.9509 39.5552 17.29 39.7379C18.2998 40.2886 19.3672 40.7261 20.473 41.0424C26.1999 42.6208 32.6442 41.4598 36.9425 37.1875C40.3212 33.8349 41.5083 29.2104 41.5083 24.5794C41.5083 24.4033 41.7236 24.2989 41.8475 24.2076C42.7023 23.5416 43.4559 22.755 44.0847 21.8725C44.1936 21.741 44.2495 21.5735 44.2413 21.4029C44.2413 21.3051 44.2413 21.3246 44.1174 21.3768Z" fill="white"/>
</svg>
