<svg width="60" height="60" viewBox="0 0 60 60" fill="none" xmlns="http://www.w3.org/2000/svg">
<path d="M15 45L17.1524 37.0039C15.4165 33.889 14.865 30.2541 15.5991 26.7664C16.3332 23.2786 18.3036 20.1719 21.1488 18.0162C23.9939 15.8606 27.523 14.8007 31.0884 15.031C34.6538 15.2613 38.0164 16.7663 40.5591 19.2699C43.1018 21.7735 44.6541 25.1078 44.9311 28.6609C45.2081 32.2139 44.1912 35.7475 42.0671 38.6131C39.9429 41.4787 36.854 43.4841 33.3672 44.2614C29.8803 45.0386 26.2294 44.5356 23.0843 42.8446L15 45ZM23.4741 39.8524L23.9741 40.1482C26.2521 41.495 28.9128 42.0524 31.5416 41.7334C34.1703 41.4144 36.6194 40.237 38.5073 38.3846C40.3951 36.5323 41.6156 34.1091 41.9786 31.4927C42.3415 28.8762 41.8266 26.2135 40.514 23.9194C39.2014 21.6253 37.1648 19.8288 34.7217 18.8098C32.2786 17.7908 29.5661 17.6065 27.007 18.2857C24.448 18.9648 22.186 20.4693 20.5736 22.5647C18.9613 24.66 18.0891 27.2285 18.0931 29.8699C18.0909 32.06 18.6982 34.2078 19.8472 36.0741L20.1608 36.5897L18.9574 41.0526L23.4741 39.8524Z" fill="white"/>
<path fill-rule="evenodd" clip-rule="evenodd" d="M35.6089 31.9231C35.3158 31.6873 34.9726 31.5213 34.6055 31.4378C34.2383 31.3543 33.8569 31.3555 33.4903 31.4413C32.9395 31.6695 32.5836 32.5317 32.2277 32.9627C32.1526 33.0661 32.0424 33.1386 31.9175 33.1666C31.7927 33.1946 31.662 33.1762 31.5498 33.1149C29.5332 32.3271 27.8429 30.8824 26.7534 29.0154C26.6605 28.8989 26.6165 28.751 26.6307 28.6028C26.6449 28.4546 26.7163 28.3176 26.8297 28.2208C27.2266 27.8289 27.5181 27.3434 27.6771 26.8093C27.7124 26.2201 27.5771 25.6333 27.2873 25.1188C27.0632 24.3974 26.6368 23.755 26.0585 23.2676C25.7602 23.1338 25.4295 23.089 25.1062 23.1384C24.7829 23.1879 24.4809 23.3297 24.2366 23.5466C23.8124 23.9116 23.4757 24.3669 23.2514 24.8789C23.027 25.3909 22.9206 25.9465 22.94 26.505C22.9413 26.8186 22.9812 27.1308 23.0587 27.4348C23.2554 28.165 23.5581 28.8626 23.9569 29.5056C24.2447 29.9982 24.5587 30.475 24.8976 30.9341C25.9988 32.4421 27.3831 33.7224 28.9736 34.704C29.7718 35.2028 30.6248 35.6084 31.5159 35.9127C32.4415 36.3312 33.4635 36.4919 34.4733 36.3776C35.0487 36.2907 35.5938 36.0641 36.0608 35.7178C36.5277 35.3714 36.9022 34.9159 37.1512 34.3912C37.2975 34.0743 37.3419 33.72 37.2783 33.3769C37.1257 32.6754 36.1851 32.2612 35.6089 31.9231Z" fill="white"/>
</svg>
