<svg width="60" height="60" viewBox="0 0 60 60" fill="none" xmlns="http://www.w3.org/2000/svg">
<path fill-rule="evenodd" clip-rule="evenodd" d="M43.0623 18.7145C44.5367 19.1127 45.6956 20.2745 46.0873 21.7473C46.8 24.42 46.8 30 46.8 30C46.8 30 46.8 35.58 46.0873 38.2527C45.6901 39.7309 44.5313 40.8927 43.0623 41.2855C40.3964 42 29.7 42 29.7 42C29.7 42 19.0091 42 16.3377 41.2855C14.8633 40.8873 13.7045 39.7255 13.3127 38.2527C12.6 35.58 12.6 30 12.6 30C12.6 30 12.6 24.42 13.3127 21.7473C13.7099 20.2691 14.8688 19.1073 16.3377 18.7145C19.0091 18 29.7 18 29.7 18C29.7 18 40.3964 18 43.0623 18.7145ZM35.1679 30L26.2833 35.1436V24.8564L35.1679 30Z" fill="#FF3000"/>
</svg>
